# xmcd CD database file
#
# Track frame offsets:
#	150
#	58684
#	87929
#	147948
#	169944
#	218715
#	246118
#	262856
#	284552
#
# Disc length: 4727 seconds
#
# Revision: 0
# Processed by: cddbd v1.5.2PL0 Copyright (c) Steve Scherf et al.
# Submitted via: CDex 1.70beta1
#
DISCID=83127509
DTITLE=Miles Davis - Milestar
DYEAR=2003
DGENRE=Jazz
TTITLE0=Walkin'
TTITLE1=Rollin' And Blowin'
TTITLE2=Les Feuilles Mortes
TTITLE3=I Got Rhythm
TTITLE4=So What
TTITLE5=Four Squared
TTITLE6=It Never Entered My Mind
TTITLE7=Four Plus One More
TTITLE8=All Of You
EXTD=YEAR: 2003
EXTT0=
EXTT1=
EXTT2=
EXTT3=
EXTT4=
EXTT5=
EXTT6=
EXTT7=
EXTT8=
PLAYORDER=
